<?xml version="1.0" standalone="no"?>
<!DOCTYPE svg PUBLIC "-//W3C//DTD SVG 20010904//EN"
 "http://www.w3.org/TR/2001/REC-SVG-20010904/DTD/svg10.dtd">
<svg version="1.0" xmlns="http://www.w3.org/2000/svg"
 width="128.000000pt" height="128.000000pt" viewBox="0 0 128.000000 128.000000"
 preserveAspectRatio="xMidYMid meet">

<g transform="translate(0.000000,128.000000) scale(0.100000,-0.100000)"
fill="#000000" stroke="none">
<path d="M0 640 l0 -640 640 0 640 0 0 640 0 640 -640 0 -640 0 0 -640z m878
439 c4 -19 -27 -34 -41 -20 -14 14 0 43 20 39 10 -2 19 -10 21 -19z m137 -4
c0 -30 -39 -27 -43 3 -3 20 0 23 20 20 15 -2 23 -10 23 -23z"/>
</g>
</svg>
